<svg id="Layer_1" data-name="Layer 1" xmlns="http://www.w3.org/2000/svg" viewBox="0 0 871 476.94"><defs><style>.cls-1{fill:#f2f2f2;}.cls-2{fill:#fff;}.cls-3{fill:#2f2e41;}.cls-4{fill:#a0616a;}.cls-10,.cls-5{fill:#fa3301;}.cls-6{fill:#3f3d56;}.cls-7{fill:#ff6584;}.cls-8{fill:#ffb8b8;}.cls-9{fill:none;}.cls-10{isolation:isolate;font-size:34px;font-family:ArialMT, Arial;letter-spacing:0.12em;}</style></defs><path class="cls-1" d="M158.6,473.3A141.78,141.78,0,0,1,52.5,333.9c.1-7.9,1-16,4.3-23.2s9.5-13.4,17.2-15.1c8.4-1.9,17.3,1.9,23.6,7.9S108,317.2,111.8,325c22.8,46.7,40.2,96.9,46.7,148.5Z" transform="translate(0 -0.06)"/><path class="cls-2" d="M70.2,297.2l16,36.4,16,36.4c5.1,11.5,10.1,23,15.4,34.5,5.2,11.3,10.6,22.6,16.3,33.7s11.8,21.9,18.4,32.5c.8,1.3,1.7,2.6,2.5,3.9.6.9,2,.1,1.4-.8-6.7-10.5-12.9-21.3-18.7-32.3s-11.3-22.3-16.5-33.6-10.3-22.8-15.4-34.3c-5.3-12.1-10.6-24.2-15.9-36.2L73.7,301l-2-4.5c-.5-1.1-1.9-.3-1.5.7Z" transform="translate(0 -0.06)"/><path class="cls-1" d="M151.9,473.6a83,83,0,0,1-92.7-43.7,32.67,32.67,0,0,1-4-13.2c-.2-4.6,1.3-9.5,4.9-12.5,3.9-3.2,9.5-3.7,14.4-2.3s9.1,4.3,13.2,7.3c24.5,18.1,47,39.4,64.3,64.5Z" transform="translate(0 -0.06)"/><path class="cls-2" d="M58.5,406l18.1,14.6,18.1,14.6c5.7,4.6,11.5,9.2,17.3,13.8s11.6,8.9,17.6,13.1,12.1,8.2,18.3,11.9c.8.5,1.6.9,2.4,1.4.5.3,1.1-.5.5-.8-6.3-3.6-12.5-7.6-18.5-11.7s-11.9-8.5-17.6-13-11.5-9.1-17.3-13.7c-6-4.8-12-9.7-18.1-14.5L61.3,407,59,405.2c-.5-.4-1,.4-.5.8Z" transform="translate(0 -0.06)"/><path class="cls-1" d="M720.3,472.4A197.74,197.74,0,0,0,868.2,278c-.2-11-1.3-22.3-6-32.3s-13.3-18.7-24-21c-11.8-2.6-24.2,2.7-32.9,11s-14.5,19.2-19.8,30c-31.8,65.2-56,135.1-65.1,207.1Z" transform="translate(0 -0.06)"/><path class="cls-2" d="M843.5,226.8l-22.3,50.7-22.3,50.7c-7.1,16.1-14.1,32.1-21.4,48.1-7.2,15.8-14.7,31.5-22.7,47s-16.5,30.6-25.7,45.3c-1.1,1.8-2.3,3.7-3.5,5.5a1.17,1.17,0,0,1-2-1.2c9.4-14.6,18-29.7,26.1-45.1s15.7-31,23-46.8,14.4-31.9,21.5-47.9c7.4-16.8,14.8-33.7,22.2-50.5l22.3-50.7,2.8-6.3c.6-1.3,2.6-.1,2,1.2Z" transform="translate(0 -0.06)"/><path class="cls-1" d="M729.6,472.8a115.75,115.75,0,0,0,129.3-61c2.9-5.8,5.3-11.9,5.6-18.4s-1.8-13.3-6.8-17.4c-5.4-4.5-13.3-5.1-20.1-3.2s-12.7,6-18.4,10.2c-34.1,25.2-65.6,55-89.7,89.9Z" transform="translate(0 -0.06)"/><path class="cls-2" d="M859.9,378.5l-25.3,20.3-25.3,20.3c-8,6.4-16,12.9-24.1,19.2s-16.2,12.4-24.5,18.3-16.8,11.4-25.6,16.6c-1.1.6-2.2,1.3-3.3,1.9a.69.69,0,0,1-.7-1.2c8.8-5.1,17.4-10.6,25.7-16.3s16.5-11.9,24.6-18.1,16.1-12.7,24.1-19.1c8.4-6.7,16.8-13.5,25.2-20.2L856,379.9l3.1-2.5c.7-.6,1.4.6.8,1.1Z" transform="translate(0 -0.06)"/><path class="cls-3" d="M215.9,146.9h0l-8.3,7-57.4,12.7a14.51,14.51,0,0,0,10.9,26.9l36.5-6.1a43.36,43.36,0,0,0,6-1.4,20.94,20.94,0,0,0,2.3-.8,232.23,232.23,0,0,1,13.6-41.3Z" transform="translate(0 -0.06)"/><path class="cls-4" d="M692.3,182.1H680.2l-24.4-42.6a5.78,5.78,0,0,0,.5-1.4c2.7-8.4-4.4-14.1-11.2-14a9.08,9.08,0,0,0-2.3.3,235.31,235.31,0,0,1,26.6,78.2,15.52,15.52,0,0,0,2.1.4,45.71,45.71,0,0,0,11.1-.4c5-.6,9.7-1.5,12.2-1.3Z" transform="translate(0 -0.06)"/><path class="cls-5" d="M718.5,182.9l-29.2-4.1a4.5,4.5,0,0,0-4.9,3.2,1.27,1.27,0,0,0-.1.6L682,199.4a4.58,4.58,0,0,0,3.8,5.1l29.2,4.1a13,13,0,1,0,3.5-25.7Z" transform="translate(0 -0.06)"/><path class="cls-6" d="M671.4,202.9A235.72,235.72,0,0,0,645,124C581.9,8.6,437.1-33.8,321.6,29.3A238.65,238.65,0,0,0,215.9,146.8h0a232.32,232.32,0,0,0-12.3,39,240.35,240.35,0,0,0-5.7,52.1c0,131.4,106.6,238,238,238s238-106.6,238-238A242.35,242.35,0,0,0,671.4,202.9ZM435.9,474c-130.1,0-236-105.9-236-236a234.44,234.44,0,0,1,19.6-94.1C255.9,60.5,339.2,2,435.9,2c89,0,166.6,49.5,206.8,122.3A235.48,235.48,0,0,1,672,238C671.9,368.1,566.1,474,435.9,474Z" transform="translate(0 -0.06)"/><path class="cls-6" d="M358.7,214a50,50,0,1,1,35.1-14.4A50,50,0,0,1,358.7,214Zm0-98a48,48,0,1,0,48,48h0A48,48,0,0,0,358.7,116Z" transform="translate(0 -0.06)"/><path class="cls-6" d="M512.7,214a50,50,0,1,1,50-50A50,50,0,0,1,512.7,214Zm0-98a48,48,0,1,0,48,48A48,48,0,0,0,512.7,116Z" transform="translate(0 -0.06)"/><path class="cls-6" d="M393.1,198.9a49,49,0,0,1-68.8,0,37.94,37.94,0,0,1,68.8,0Z" transform="translate(0 -0.06)"/><path class="cls-6" d="M547.1,198.9a49,49,0,0,1-68.8,0,37.94,37.94,0,0,1,68.8,0Z" transform="translate(0 -0.06)"/><path class="cls-6" d="M403.7,246c0-5.5,17.9-10,40-10s40,4.5,40,10-17.9,26-40,26S403.7,251.5,403.7,246Z" transform="translate(0 -0.06)"/><circle class="cls-7" cx="310.2" cy="227.44" r="17"/><circle class="cls-7" cx="561.7" cy="227.94" r="17"/><polygon class="cls-8" points="197.9 463.34 210.1 463.34 216 416.04 197.9 416.04 197.9 463.34"/><path class="cls-3" d="M233.8,476.7H195.3V461.8h23.6a15,15,0,0,1,14.9,14.9Z" transform="translate(0 -0.06)"/><polygon class="cls-8" points="136.9 463.34 149.1 463.34 155 416.04 136.9 416.04 136.9 463.34"/><path class="cls-3" d="M172.8,476.7H134.3V461.8h23.6a15,15,0,0,1,14.9,14.9Z" transform="translate(0 -0.06)"/><path class="cls-3" d="M201.2,270.6,212,356c1.5,11.7,2.5,23.5,3.1,35.3l2.9,58.1a4,4,0,0,1-3.8,4.2H197.6a4,4,0,0,1-4-3.4L179,353.3a2.1,2.1,0,0,0-2.3-1.7,2.14,2.14,0,0,0-1.7,1.6l-17.7,94.9a3.93,3.93,0,0,1-3.6,3.2l-15.1,1a4,4,0,0,1-4.3-3.7v-.4l4.9-155.6Z" transform="translate(0 -0.06)"/><circle class="cls-8" cx="153.5" cy="124.34" r="24.6"/><path class="cls-5" d="M134.2,294.6c6,14,32,24,38,4,4.6-15.5,23-22,31.1-24.1a4.11,4.11,0,0,0,2.9-4.9l-22.7-89a31.64,31.64,0,0,0-21.1-22.2,31.23,31.23,0,0,0-40.1,24.5,138.6,138.6,0,0,0-1.6,15.8C118.9,238,130.3,285.4,134.2,294.6Z" transform="translate(0 -0.06)"/><path class="cls-8" d="M270.6,214.4a10,10,0,0,0-14,2.6l-.9,1.5-35.6-3.4,8.7,16.4,32.4.7a10.06,10.06,0,0,0,13-5.9A9.78,9.78,0,0,0,270.6,214.4Z" transform="translate(0 -0.06)"/><path class="cls-3" d="M252.9,232.6a4.48,4.48,0,0,1-3.4,1.5L203.1,233a46.25,46.25,0,0,1-30.5-11.5l-27.8-24.4a14.52,14.52,0,1,1,13.9-25.5h0L204.8,208l44.9,8.7a4.6,4.6,0,0,1,3.4,3.9l.9,8.5a4.68,4.68,0,0,1-.5,2.6A1.46,1.46,0,0,1,252.9,232.6Z" transform="translate(0 -0.06)"/><path class="cls-3" d="M134.8,144.5a4,4,0,0,0,5.5-1.4,3,3,0,0,0,.4-1V142a18.17,18.17,0,0,0-.1-5.7,6.87,6.87,0,0,1,1.4-5.4c2.4-2.6,6.7-1.2,10.3-1.9a8.57,8.57,0,0,0,6.7-9.3,5,5,0,0,0-.2-1.2,6.58,6.58,0,0,1,5.1-7.9,5.46,5.46,0,0,1,1.8-.1c3.5.2,7.4,1.3,10.3-1.4a7.56,7.56,0,0,0,1.8-8.2c-1.7-4.8-6.4-7.4-11.1-8.8a40.74,40.74,0,0,0-34.4,5.6c-3,2.1-5.7,4.7-7,8.1s-.7,7.7,2.2,9.9a18.19,18.19,0,0,0-4.2,17.8C124.7,138.2,131.4,142.6,134.8,144.5Z" transform="translate(0 -0.06)"/><polygon class="cls-4" points="664.1 463.14 651.9 463.14 646 415.84 664.1 415.84 664.1 463.14"/><path class="cls-3" d="M643.1,461.7h23.6v14.9H628.2a14.87,14.87,0,0,1,14.9-14.9Z" transform="translate(0 -0.06)"/><polygon class="cls-4" points="751.1 463.14 738.9 463.14 733 415.84 751.1 415.84 751.1 463.14"/><path class="cls-3" d="M730.1,461.7h23.6v14.9H715.2a14.87,14.87,0,0,1,14.9-14.9Z" transform="translate(0 -0.06)"/><path class="cls-3" d="M664.3,433.9h-.4l-17.4-1.4a5,5,0,0,1-4.6-5.4v-.4L668.4,264l1.8-23a5.11,5.11,0,0,1,3.9-4.5l26.5-5.8a5,5,0,0,1,5.2,2.1l6.5,9.4a105.48,105.48,0,0,0,8.2,10.5c4.6,5.2,12.4,16.8,13.1,35.7a130.31,130.31,0,0,0,1.9,18.6l21.3,114.8a5,5,0,0,1-4.1,5.7h-.3L736,428.7a5,5,0,0,1-5.3-3.7L701.5,316.5a1,1,0,0,0-1.2-.7,1.21,1.21,0,0,0-.7.7L669.4,430.1A5.43,5.43,0,0,1,664.3,433.9Z" transform="translate(0 -0.06)"/><circle class="cls-4" cx="710.5" cy="132.34" r="24.6"/><path class="cls-5" d="M668.9,244.7l-.5-35.1c-1.9-22.4,8.1-34.2,16.7-40.1a20,20,0,0,1,15.4-2.9l19.3,4.2a20.45,20.45,0,0,1,13.1,9.3,18.85,18.85,0,0,1,2.2,15,20.29,20.29,0,0,1-8.4,11.5c-16.6,11.7-17.8,31.4-17.8,31.6v.4Z" transform="translate(0 -0.06)"/><path class="cls-4" d="M615.2,224.2a11,11,0,0,1-15.5,1.4c-.3-.3-.7-.6-1-.9-9.7-10.2,6.1-25.4,15.9-15.2h0c.3.4.7.7,1,1.1l49-1.2,5.9-10.7,18,7c-3.5,5.4-7.4,26.4-16.4,25.3C670.8,231,616.4,224.3,615.2,224.2Z" transform="translate(0 -0.06)"/><path class="cls-5" d="M680.8,216.1,667.1,206a4.59,4.59,0,0,1-1-6.3l17.5-23.8a13,13,0,0,1,21,15.4h0l-17.5,23.8A4.5,4.5,0,0,1,680.8,216.1Z" transform="translate(0 -0.06)"/><path class="cls-3" d="M704.5,126.3a39.32,39.32,0,0,1-10.7,1.8,13.49,13.49,0,0,1-9.9-3.9c-3.5-3.8-3.4-10-.7-14.4s7.5-7.1,12.6-8.4,10.2-1.2,15.4-1.1c6.1-4.5,15.1-3.8,21.4.5s10.1,11.4,11.8,18.8,1.3,15.1.7,22.7c-.3,4.1,0,9.5,4,10.8,2.5.8,5.2-.7,7-2.6s3-4.3,4.9-6.1c4-3.9,10.4-4.7,15.7-2.8s9.5,6,12.4,10.8a37.49,37.49,0,0,1-42.6,55.8c-13.5-4.1-23.7-15.5-30.3-28a92.37,92.37,0,0,1-10-52.4Z" transform="translate(0 -0.06)"/><path class="cls-6" d="M870,477H1a1,1,0,0,1,0-2H870a1,1,0,0,1,0,2Z" transform="translate(0 -0.06)"/><rect class="cls-9" x="298.5" y="419.64" width="265" height="41"/><text class="cls-10" transform="translate(340.88 443.77)">Just Smile</text></svg>